<?xml version="1.0" encoding="UTF-8" standalone="no"?>
<!DOCTYPE svg PUBLIC "-//W3C//DTD SVG 1.1//EN"
 "http://www.w3.org/Graphics/SVG/1.1/DTD/svg11.dtd">
<!-- Generated by graphviz version 7.1.0 (0)
 -->
<!-- Title: flow Pages: 1 -->
<svg width="475pt" height="478pt"
 viewBox="0.00 0.00 475.05 477.75" xmlns="http://www.w3.org/2000/svg" xmlns:xlink="http://www.w3.org/1999/xlink">
<g id="graph0" class="graph" transform="scale(1 1) rotate(0) translate(4 473.75)">
<title>flow</title>
<polygon fill="white" stroke="none" points="-4,4 -4,-473.75 471.05,-473.75 471.05,4 -4,4"/>
<g id="clust1" class="cluster">
<title>cluster_openssl</title>
<polygon fill="lightgreen" stroke="black" stroke-dasharray="1,5" points="46.05,-228.5 46.05,-353.5 412.05,-353.5 412.05,-228.5 46.05,-228.5"/>
</g>
<!-- rbio -->
<g id="node1" class="node">
<title>rbio</title>
<text text-anchor="middle" x="137.05" y="-323.8" font-family="Times,serif" font-size="14.00">rbio</text>
</g>
<!-- rssl -->
<g id="node2" class="node">
<title>rssl</title>
<text text-anchor="middle" x="137.05" y="-250.8" font-family="Times,serif" font-size="14.00">rssl</text>
</g>
<!-- rbio&#45;&gt;rssl -->
<g id="edge1" class="edge">
<title>rbio&#45;&gt;rssl</title>
<path fill="none" stroke="black" d="M137.05,-309.67C137.05,-301.89 137.05,-292.44 137.05,-283.62"/>
<polygon fill="black" stroke="black" points="140.55,-283.72 137.05,-273.72 133.55,-283.72 140.55,-283.72"/>
</g>
<!-- wbio -->
<g id="node3" class="node">
<title>wbio</title>
<text text-anchor="middle" x="321.05" y="-250.8" font-family="Times,serif" font-size="14.00">wbio</text>
</g>
<!-- rbio&#45;&gt;wbio -->
<g id="edge2" class="edge">
<title>rbio&#45;&gt;wbio</title>
<path fill="none" stroke="black" stroke-dasharray="5,2" d="M180.65,-309.67C206.36,-299.75 239.11,-287.12 266.52,-276.54"/>
<polygon fill="black" stroke="black" points="267.64,-279.86 275.71,-273 265.12,-273.33 267.64,-279.86"/>
</g>
<!-- app -->
<g id="node6" class="node">
<title>app</title>
<polygon fill="none" stroke="black" points="220.05,-169.38 54.05,-169.38 54.05,-165.38 50.05,-165.38 50.05,-161.38 54.05,-161.38 54.05,-139.38 50.05,-139.38 50.05,-135.38 54.05,-135.38 54.05,-131.38 220.05,-131.38 220.05,-169.38"/>
<polyline fill="none" stroke="black" points="54.05,-165.38 58.05,-165.38 58.05,-161.38 54.05,-161.38"/>
<polyline fill="none" stroke="black" points="54.05,-139.38 58.05,-139.38 58.05,-135.38 54.05,-135.38"/>
<text text-anchor="middle" x="137.05" y="-154.18" font-family="Times,serif" font-size="14.00">Application</text>
<text text-anchor="middle" x="137.05" y="-139.18" font-family="Times,serif" font-size="14.00">code</text>
</g>
<!-- rssl&#45;&gt;app -->
<g id="edge6" class="edge">
<title>rssl&#45;&gt;app</title>
<path fill="none" stroke="black" d="M137.05,-236.64C137.05,-221.56 137.05,-199.12 137.05,-181.04"/>
<polygon fill="black" stroke="black" points="140.55,-181.16 137.05,-171.16 133.55,-181.16 140.55,-181.16"/>
<text text-anchor="middle" x="91.55" y="-200.04" font-family="Times,serif" font-size="11.00">CAN&#45;READ&#45;SSL</text>
<text text-anchor="middle" x="91.55" y="-188.04" font-family="Times,serif" font-size="11.00">ssl&#45;read</text>
<text text-anchor="middle" x="131.13" y="-221.15" font-family="Times,serif" font-size="11.00">③</text>
</g>
<!-- outqueue -->
<g id="node9" class="node">
<title>outqueue</title>
<path fill="none" stroke="black" d="M404.05,-171.85C404.05,-174.49 366.85,-176.63 321.05,-176.63 275.25,-176.63 238.05,-174.49 238.05,-171.85 238.05,-171.85 238.05,-128.9 238.05,-128.9 238.05,-126.26 275.25,-124.12 321.05,-124.12 366.85,-124.12 404.05,-126.26 404.05,-128.9 404.05,-128.9 404.05,-171.85 404.05,-171.85"/>
<path fill="none" stroke="black" d="M404.05,-171.85C404.05,-169.22 366.85,-167.08 321.05,-167.08 275.25,-167.08 238.05,-169.22 238.05,-171.85"/>
<text text-anchor="middle" x="321.05" y="-154.18" font-family="Times,serif" font-size="14.00">Write</text>
<text text-anchor="middle" x="321.05" y="-139.18" font-family="Times,serif" font-size="14.00">queue</text>
</g>
<!-- wbio&#45;&gt;outqueue -->
<g id="edge8" class="edge">
<title>wbio&#45;&gt;outqueue</title>
<path fill="none" stroke="black" d="M321.05,-236.64C321.05,-223.47 321.05,-204.69 321.05,-188.11"/>
<polygon fill="black" stroke="black" points="324.55,-188.59 321.05,-178.59 317.55,-188.59 324.55,-188.59"/>
<text text-anchor="middle" x="383.05" y="-209.7" font-family="Times,serif" font-size="11.00">CAN&#45;READ&#45;BIO</text>
<text text-anchor="middle" x="383.05" y="-197.7" font-family="Times,serif" font-size="11.00">move&#45;encrypted&#45;bytes</text>
<text text-anchor="middle" x="326.97" y="-186.96" font-family="Times,serif" font-size="11.00">Ⓔ</text>
<text text-anchor="middle" x="315.13" y="-221.15" font-family="Times,serif" font-size="11.00">⑤</text>
</g>
<!-- wssl -->
<g id="node4" class="node">
<title>wssl</title>
<text text-anchor="middle" x="321.05" y="-323.8" font-family="Times,serif" font-size="14.00">wssl</text>
</g>
<!-- wssl&#45;&gt;wbio -->
<g id="edge3" class="edge">
<title>wssl&#45;&gt;wbio</title>
<path fill="none" stroke="black" d="M321.05,-309.67C321.05,-301.89 321.05,-292.44 321.05,-283.62"/>
<polygon fill="black" stroke="black" points="324.55,-283.72 321.05,-273.72 317.55,-283.72 324.55,-283.72"/>
</g>
<!-- portin -->
<g id="node5" class="node">
<title>portin</title>
<polygon fill="lightblue" stroke="black" points="189.05,-456.62 41.05,-456.62 41.05,-430.62 189.05,-430.62 189.05,-424.62 207.05,-443.62 189.05,-462.62 189.05,-456.62"/>
<text text-anchor="middle" x="124.05" y="-447.43" font-family="Times,serif" font-size="14.00">tcp</text>
<text text-anchor="middle" x="124.05" y="-432.43" font-family="Times,serif" font-size="14.00">port</text>
</g>
<!-- portin&#45;&gt;rbio -->
<g id="edge4" class="edge">
<title>portin&#45;&gt;rbio</title>
<path fill="none" stroke="black" d="M126.14,-424.29C128.22,-405.98 131.46,-377.6 133.86,-356.48"/>
<polygon fill="black" stroke="black" points="137.31,-357.14 134.96,-346.81 130.35,-356.35 137.31,-357.14"/>
<text text-anchor="middle" x="65" y="-381.58" font-family="Times,serif" font-size="11.00">CAN&#45;READ&#45;PORT</text>
<text text-anchor="middle" x="65" y="-369.58" font-family="Times,serif" font-size="11.00">process&#45;data&#45;on&#45;socket</text>
<text text-anchor="middle" x="65" y="-357.58" font-family="Times,serif" font-size="11.00"> </text>
<text text-anchor="middle" x="139.58" y="-355.78" font-family="Times,serif" font-size="11.00">②</text>
<text text-anchor="middle" x="121.7" y="-408.21" font-family="Times,serif" font-size="11.00">①</text>
</g>
<!-- writecache2 -->
<g id="node8" class="node">
<title>writecache2</title>
<path fill="none" stroke="black" d="M409.05,-465.1C409.05,-467.74 371.85,-469.88 326.05,-469.88 280.25,-469.88 243.05,-467.74 243.05,-465.1 243.05,-465.1 243.05,-422.15 243.05,-422.15 243.05,-419.51 280.25,-417.37 326.05,-417.37 371.85,-417.37 409.05,-419.51 409.05,-422.15 409.05,-422.15 409.05,-465.1 409.05,-465.1"/>
<path fill="none" stroke="black" d="M409.05,-465.1C409.05,-462.47 371.85,-460.33 326.05,-460.33 280.25,-460.33 243.05,-462.47 243.05,-465.1"/>
<text text-anchor="middle" x="326.05" y="-447.43" font-family="Times,serif" font-size="14.00">Encrypt</text>
<text text-anchor="middle" x="326.05" y="-432.43" font-family="Times,serif" font-size="14.00">queue</text>
</g>
<!-- portin&#45;&gt;writecache2 -->
<!-- writecache -->
<g id="node7" class="node">
<title>writecache</title>
<path fill="none" stroke="black" d="M220.05,-47.6C220.05,-50.24 182.85,-52.38 137.05,-52.38 91.25,-52.38 54.05,-50.24 54.05,-47.6 54.05,-47.6 54.05,-4.65 54.05,-4.65 54.05,-2.01 91.25,0.13 137.05,0.13 182.85,0.13 220.05,-2.01 220.05,-4.65 220.05,-4.65 220.05,-47.6 220.05,-47.6"/>
<path fill="none" stroke="black" d="M220.05,-47.6C220.05,-44.97 182.85,-42.83 137.05,-42.83 91.25,-42.83 54.05,-44.97 54.05,-47.6"/>
<text text-anchor="middle" x="137.05" y="-29.93" font-family="Times,serif" font-size="14.00">Encrypt</text>
<text text-anchor="middle" x="137.05" y="-14.93" font-family="Times,serif" font-size="14.00">queue</text>
</g>
<!-- app&#45;&gt;writecache -->
<g id="edge5" class="edge">
<title>app&#45;&gt;writecache</title>
<path fill="none" stroke="black" d="M137.05,-131.07C137.05,-113.46 137.05,-86.3 137.05,-64.17"/>
<polygon fill="black" stroke="black" points="140.55,-64.32 137.05,-54.32 133.55,-64.32 140.55,-64.32"/>
<text text-anchor="middle" x="70.55" y="-100.82" font-family="Times,serif" font-size="11.00">send&#45;unencrypted&#45;bytes</text>
<text text-anchor="middle" x="142.97" y="-62.69" font-family="Times,serif" font-size="11.00">Ⓤ</text>
</g>
<!-- writecache&#45;&gt;writecache2 -->
<g id="edge10" class="edge">
<title>writecache&#45;&gt;writecache2</title>
<path fill="none" stroke="gray" stroke-dasharray="1,5" d="M146.51,-47.03C177.95,-116.48 278.91,-339.48 313.94,-416.87"/>
</g>
<!-- writecache2&#45;&gt;wssl -->
<g id="edge7" class="edge">
<title>writecache2&#45;&gt;wssl</title>
<path fill="none" stroke="black" d="M324.93,-417.01C324.14,-399.09 323.09,-375.15 322.28,-356.69"/>
<polygon fill="black" stroke="black" points="325.78,-356.55 321.85,-346.71 318.79,-356.85 325.78,-356.55"/>
<text text-anchor="middle" x="395.55" y="-390.7" font-family="Times,serif" font-size="11.00">HAS&#45;DATA&#45;TO&#45;ENCRYPT</text>
<text text-anchor="middle" x="395.55" y="-378.7" font-family="Times,serif" font-size="11.00">CAN&#45;WRITE&#45;SSL</text>
<text text-anchor="middle" x="395.55" y="-366.7" font-family="Times,serif" font-size="11.00">encrypt&#45;data</text>
<text text-anchor="middle" x="328.25" y="-354.81" font-family="Times,serif" font-size="11.00">④</text>
</g>
<!-- portout -->
<g id="node10" class="node">
<title>portout</title>
<polygon fill="lightblue" stroke="black" points="386.05,-39.12 238.05,-39.12 238.05,-13.12 386.05,-13.12 386.05,-7.12 404.05,-26.12 386.05,-45.12 386.05,-39.12"/>
<text text-anchor="middle" x="321.05" y="-29.93" font-family="Times,serif" font-size="14.00">tcp</text>
<text text-anchor="middle" x="321.05" y="-14.93" font-family="Times,serif" font-size="14.00">port</text>
</g>
<!-- outqueue&#45;&gt;portout -->
<g id="edge9" class="edge">
<title>outqueue&#45;&gt;portout</title>
<path fill="none" stroke="black" d="M321.05,-123.75C321.05,-104.29 321.05,-77.49 321.05,-57.05"/>
<polygon fill="black" stroke="black" points="324.55,-57.07 321.05,-47.07 317.55,-57.07 324.55,-57.07"/>
<text text-anchor="middle" x="383.55" y="-97.45" font-family="Times,serif" font-size="11.00">HAS&#45;DATA&#45;TO&#45;WRITE</text>
<text text-anchor="middle" x="383.55" y="-85.45" font-family="Times,serif" font-size="11.00">CAN&#45;WRITE</text>
<text text-anchor="middle" x="383.55" y="-73.45" font-family="Times,serif" font-size="11.00">write&#45;data&#45;to&#45;socket</text>
<text text-anchor="middle" x="326.97" y="-55.45" font-family="Times,serif" font-size="11.00">⑥</text>
</g>
</g>
</svg>
